# xmcd
#
# Track frame offsets:
#	150
#	9921
#	20991
#	31614
#	38323
#	47865
#	58208
#	66725
#	77762
#	89955
#	100447
#	113263
#	123173
#	133314
#	145630
#	157932
#	169055
#	183260
#	195504
#	208568
#	219223
#	232205
#	242544
#	254016
#	263944
#	274969
#	287943
#
# Disc length: 3977 seconds
#
# Revision: 0
# Processed by: cddbd v1.5.2PL0 Copyright (c) Steve Scherf et al.
# Submitted via: audiograbber 1.83.01
#
DISCID=8c0f871b
DTITLE=Roy Orbison - The Monumental Roy Orbison - Volume 1
DYEAR=2013
DGENRE=Rock and Roll
TTITLE0=Paper Boy
TTITLE1=With The Bug
TTITLE2=Double Date
TTITLE3=You Fool You (demo)
TTITLE4=Uptown
TTITLE5=Pretty One
TTITLE6=Raindrops
TTITLE7=Only The Lonely (Know The Way I Feel)
TTITLE8=Here Comes That Song Again
TTITLE9=Blue Avenue
TTITLE10=Blue Angel
TTITLE11=Today's Teardrops
TTITLE12=Bye Bye Love
TTITLE13=Cry
TTITLE14=I Can't Stop Loving You
TTITLE15=Come Back To Me (My Love)
TTITLE16=(I'd Be) A Legend In My Time
TTITLE17=I'm Hurtin'
TTITLE18=Twenty-Two Days
TTITLE19=I'll Say It's My Fault
TTITLE20=Darkness
TTITLE21=Let's Make A Memory
TTITLE22=Nite Life
TTITLE23=Running Scared
TTITLE24=Love Hurts
TTITLE25=Dance
TTITLE26=Yes
EXTD=First of 4 volumes. Roy Orbison's Monument recordings 1959-1965, in order 
EXTD=of production.
EXTT0=
EXTT1=
EXTT2=
EXTT3=Recorded with Joe Melson.
EXTT4=
EXTT5=
EXTT6=
EXTT7=
EXTT8=
EXTT9=
EXTT10=
EXTT11=
EXTT12=
EXTT13=
EXTT14=
EXTT15=
EXTT16=
EXTT17=
EXTT18=
EXTT19=
EXTT20=
EXTT21=
EXTT22=
EXTT23=
EXTT24=
EXTT25=
EXTT26=
PLAYORDER=
